<?xml version="1.0" encoding="utf-8"?>
<!-- Generator: Adobe Illustrator 24.0.1, SVG Export Plug-In . SVG Version: 6.00 Build 0)  -->
<svg version="1.1" id="Layer_1" xmlns="http://www.w3.org/2000/svg" xmlns:xlink="http://www.w3.org/1999/xlink" x="0px" y="0px"
	 viewBox="0 0 500 500" style="enable-background:new 0 0 500 500;" xml:space="preserve">
<style type="text/css">
	.st0{fill:#39B54A;}
</style>
<g>
	<path d="M423.446167,208.6166382c0,54.6228027-24.656189,118.2427979-67.6463013,174.5476074
		c-36.713501,48.0834961-80.2200317,81.6655273-105.8001709,81.6655273c-25.5800781,0-69.0866089-33.5820313-105.7990112-81.6655273
		C101.210022,326.859436,76.553833,263.2394409,76.553833,208.6166382c0-95.6385498,77.807312-173.4464111,173.4458618-173.4464111
		S423.446167,112.9780884,423.446167,208.6166382z"/>
	<path d="M249.9996948,35.1702271c-95.6385498,0-173.4458618,77.8078613-173.4458618,173.4464111
		c0,54.6228027,24.656189,118.2427979,67.6468506,174.5476074c36.7124023,48.0834961,80.2189331,81.6655273,105.7990112,81.6655273
		c25.5801392,0,69.0866699-33.5820313,105.8001709-81.6655273c42.9901123-56.3048096,67.6463013-119.9248047,67.6463013-174.5476074
		C423.446167,112.9780884,345.6382446,35.1702271,249.9996948,35.1702271z M344.6658936,374.6635742
		c-37.769104,49.4674072-76.9631958,76.1583862-94.6661987,76.1583862c-17.7023926,0-56.8964844-26.690979-94.6655884-76.1583862
		c-41.1638794-53.9120483-64.7724609-114.4347534-64.7724609-166.046936
		c0-87.9147949,71.5238647-159.4385986,159.4380493-159.4385986c87.9153442,0,159.4386597,71.5238037,159.4386597,159.4385986
		C409.4383545,260.2288208,385.8297729,320.7515259,344.6658936,374.6635742z M349.9708862,288.975647
		c-34.1398926,24.9015503-79.2175903,21.2304688-84.8322144,13.5328979
		c-5.614624-7.6976318,4.6595459-51.7420654,38.7995605-76.6436768
		c34.1398926-24.9015503,79.5663452-20.7523193,84.8322144-13.5328979
		C394.0362549,219.5514526,384.1109009,264.0740356,349.9708862,288.975647z M150.0288696,288.975647
		c-34.1399536-24.9016113-44.0653687-69.4241943-38.7994385-76.6436768
		c5.2658081-7.2194214,50.6921997-11.3686523,84.8322144,13.5328979
		c34.1399536,24.9016113,44.4140625,68.9460449,38.7994995,76.6436768
		C229.246582,310.2061157,184.1688843,313.8771973,150.0288696,288.975647z M298.7434692,375.6112061
		c5.4897461,4.3164063-27.28302,38.1513672-48.7435303,38.1513672c-21.4603882,0-54.2331543-33.8349609-48.7434082-38.1513672
		c5.4899292-4.3164063,33.4383545,14.480835,48.7434082,14.480835
		C265.3051147,390.092041,293.25354,371.2947998,298.7434692,375.6112061z"/>
	<path class="st0" d="M249.9996948,49.1780396c-87.9141846,0-159.4380493,71.5238037-159.4380493,159.4385986
		c0,51.6121826,23.6085815,112.1348877,64.7724609,166.046936c37.769104,49.4674072,76.9631958,76.1583862,94.6655884,76.1583862
		c17.7030029,0,56.8970947-26.690979,94.6661987-76.1583862c41.1638794-53.9120483,64.7724609-114.4347534,64.7724609-166.046936
		C409.4383545,120.7018433,337.9150391,49.1780396,249.9996948,49.1780396z M150.0288696,288.975647
		c-34.1399536-24.9016113-44.0653687-69.4241943-38.7994385-76.6436768
		c5.2658081-7.2194214,50.6921997-11.3686523,84.8322144,13.5328979
		c34.1399536,24.9016113,44.4140625,68.9460449,38.7994995,76.6436768
		C229.246582,310.2061157,184.1688843,313.8771973,150.0288696,288.975647z M249.999939,413.7625732
		c-21.4603882,0-54.2331543-33.8349609-48.7434082-38.1513672c5.4899292-4.3164063,33.4383545,14.480835,48.7434082,14.480835
		c15.3051758,0,43.2536011-18.7972412,48.7435303-14.480835
		C304.2332153,379.9276123,271.4604492,413.7625732,249.999939,413.7625732z M349.9708862,288.975647
		c-34.1398926,24.9015503-79.2175903,21.2304688-84.8322144,13.5328979
		c-5.614624-7.6976318,4.6595459-51.7420654,38.7995605-76.6436768
		c34.1398926-24.9015503,79.5663452-20.7523193,84.8322144-13.5328979
		C394.0362549,219.5514526,384.1109009,264.0740356,349.9708862,288.975647z"/>
</g>
</svg>
